<mxfile host="app.diagrams.net" agent="Mozilla/5.0 (Windows NT 10.0; Win64; x64) AppleWebKit/537.36 (KHTML, like Gecko) Chrome/129.0.0.0 Safari/537.36" version="24.7.17">
  <diagram name="Page-1" id="74e2e168-ea6b-b213-b513-2b3c1d86103e">
    <mxGraphModel dx="1461" dy="776" grid="1" gridSize="10" guides="1" tooltips="1" connect="1" arrows="1" fold="1" page="1" pageScale="1" pageWidth="1100" pageHeight="850" background="none" math="0" shadow="0">
      <root>
        <mxCell id="0" />
        <mxCell id="1" parent="0" />
        <mxCell id="NAynLkv95dkXEbG3x9yb-1" value="Visitor" style="swimlane;html=1;startSize=20;" parent="1" vertex="1">
          <mxGeometry x="70" y="60" width="520" height="1140" as="geometry" />
        </mxCell>
        <mxCell id="NAynLkv95dkXEbG3x9yb-2" style="edgeStyle=orthogonalEdgeStyle;rounded=0;orthogonalLoop=1;jettySize=auto;html=1;exitX=0.5;exitY=1;exitDx=0;exitDy=0;entryX=0.5;entryY=0;entryDx=0;entryDy=0;" parent="NAynLkv95dkXEbG3x9yb-1" source="NAynLkv95dkXEbG3x9yb-3" target="NAynLkv95dkXEbG3x9yb-5" edge="1">
          <mxGeometry relative="1" as="geometry" />
        </mxCell>
        <mxCell id="NAynLkv95dkXEbG3x9yb-3" value="Enter the website." style="rounded=1;whiteSpace=wrap;html=1;" parent="NAynLkv95dkXEbG3x9yb-1" vertex="1">
          <mxGeometry x="180" y="100" width="160" height="50" as="geometry" />
        </mxCell>
        <mxCell id="NAynLkv95dkXEbG3x9yb-4" style="edgeStyle=orthogonalEdgeStyle;rounded=0;orthogonalLoop=1;jettySize=auto;html=1;exitX=0.5;exitY=1;exitDx=0;exitDy=0;entryX=0.5;entryY=0;entryDx=0;entryDy=0;" parent="NAynLkv95dkXEbG3x9yb-1" source="NAynLkv95dkXEbG3x9yb-5" target="NAynLkv95dkXEbG3x9yb-6" edge="1">
          <mxGeometry relative="1" as="geometry" />
        </mxCell>
        <mxCell id="NAynLkv95dkXEbG3x9yb-5" value="Click &quot;sign up&quot;." style="rounded=1;whiteSpace=wrap;html=1;" parent="NAynLkv95dkXEbG3x9yb-1" vertex="1">
          <mxGeometry x="180" y="200" width="160" height="50" as="geometry" />
        </mxCell>
        <mxCell id="NAynLkv95dkXEbG3x9yb-14" style="edgeStyle=orthogonalEdgeStyle;rounded=0;orthogonalLoop=1;jettySize=auto;html=1;" parent="NAynLkv95dkXEbG3x9yb-1" source="NAynLkv95dkXEbG3x9yb-15" target="NAynLkv95dkXEbG3x9yb-3" edge="1">
          <mxGeometry relative="1" as="geometry" />
        </mxCell>
        <mxCell id="NAynLkv95dkXEbG3x9yb-15" value="" style="ellipse;html=1;shape=endState;fillColor=#000000;strokeColor=#ff0000;" parent="NAynLkv95dkXEbG3x9yb-1" vertex="1">
          <mxGeometry x="245" y="30" width="30" height="30" as="geometry" />
        </mxCell>
        <mxCell id="NAynLkv95dkXEbG3x9yb-6" value="Fill in their personal information, including their phone numbers and email addresses." style="rounded=1;whiteSpace=wrap;html=1;" parent="NAynLkv95dkXEbG3x9yb-1" vertex="1">
          <mxGeometry x="135" y="330" width="250" height="50" as="geometry" />
        </mxCell>
        <mxCell id="NAynLkv95dkXEbG3x9yb-7" style="edgeStyle=orthogonalEdgeStyle;rounded=0;orthogonalLoop=1;jettySize=auto;html=1;entryX=0.5;entryY=0;entryDx=0;entryDy=0;" parent="NAynLkv95dkXEbG3x9yb-1" source="NAynLkv95dkXEbG3x9yb-8" target="NAynLkv95dkXEbG3x9yb-13" edge="1">
          <mxGeometry relative="1" as="geometry" />
        </mxCell>
        <mxCell id="NAynLkv95dkXEbG3x9yb-8" value="Prove their info valid by clicking those links." style="rounded=1;whiteSpace=wrap;html=1;" parent="NAynLkv95dkXEbG3x9yb-1" vertex="1">
          <mxGeometry x="20" y="560" width="190" height="50" as="geometry" />
        </mxCell>
        <mxCell id="NAynLkv95dkXEbG3x9yb-9" style="edgeStyle=orthogonalEdgeStyle;rounded=0;orthogonalLoop=1;jettySize=auto;html=1;exitX=0.5;exitY=1;exitDx=0;exitDy=0;entryX=0.5;entryY=0;entryDx=0;entryDy=0;" parent="NAynLkv95dkXEbG3x9yb-1" source="NAynLkv95dkXEbG3x9yb-11" target="NAynLkv95dkXEbG3x9yb-12" edge="1">
          <mxGeometry relative="1" as="geometry" />
        </mxCell>
        <mxCell id="NAynLkv95dkXEbG3x9yb-10" style="edgeStyle=orthogonalEdgeStyle;rounded=0;orthogonalLoop=1;jettySize=auto;html=1;" parent="NAynLkv95dkXEbG3x9yb-1" source="NAynLkv95dkXEbG3x9yb-11" target="NAynLkv95dkXEbG3x9yb-8" edge="1">
          <mxGeometry relative="1" as="geometry" />
        </mxCell>
        <mxCell id="NAynLkv95dkXEbG3x9yb-11" value="" style="rhombus;whiteSpace=wrap;html=1;" parent="NAynLkv95dkXEbG3x9yb-1" vertex="1">
          <mxGeometry x="240" y="410" width="30" height="40" as="geometry" />
        </mxCell>
        <mxCell id="NAynLkv95dkXEbG3x9yb-12" value="Do not click links within time limits." style="rounded=1;whiteSpace=wrap;html=1;" parent="NAynLkv95dkXEbG3x9yb-1" vertex="1">
          <mxGeometry x="290" y="560" width="190" height="50" as="geometry" />
        </mxCell>
        <mxCell id="NAynLkv95dkXEbG3x9yb-13" value="Set their password for login." style="rounded=1;whiteSpace=wrap;html=1;" parent="NAynLkv95dkXEbG3x9yb-1" vertex="1">
          <mxGeometry x="20" y="830" width="190" height="50" as="geometry" />
        </mxCell>
        <mxCell id="NAynLkv95dkXEbG3x9yb-17" value="Verify the phone number and email address by sending some links for the users to click." style="rounded=1;whiteSpace=wrap;html=1;" parent="NAynLkv95dkXEbG3x9yb-1" vertex="1">
          <mxGeometry x="700" y="330" width="250" height="50" as="geometry" />
        </mxCell>
        <mxCell id="NAynLkv95dkXEbG3x9yb-18" style="edgeStyle=orthogonalEdgeStyle;rounded=0;orthogonalLoop=1;jettySize=auto;html=1;exitX=0.5;exitY=1;exitDx=0;exitDy=0;entryX=0.5;entryY=0;entryDx=0;entryDy=0;" parent="NAynLkv95dkXEbG3x9yb-1" source="NAynLkv95dkXEbG3x9yb-19" target="NAynLkv95dkXEbG3x9yb-22" edge="1">
          <mxGeometry relative="1" as="geometry" />
        </mxCell>
        <mxCell id="NAynLkv95dkXEbG3x9yb-19" value="The system creates the account." style="rounded=1;whiteSpace=wrap;html=1;" parent="NAynLkv95dkXEbG3x9yb-1" vertex="1">
          <mxGeometry x="550" y="830" width="250" height="50" as="geometry" />
        </mxCell>
        <mxCell id="NAynLkv95dkXEbG3x9yb-20" style="edgeStyle=orthogonalEdgeStyle;rounded=0;orthogonalLoop=1;jettySize=auto;html=1;entryX=0.5;entryY=0;entryDx=0;entryDy=0;" parent="NAynLkv95dkXEbG3x9yb-1" source="NAynLkv95dkXEbG3x9yb-21" target="NAynLkv95dkXEbG3x9yb-22" edge="1">
          <mxGeometry relative="1" as="geometry" />
        </mxCell>
        <mxCell id="NAynLkv95dkXEbG3x9yb-21" value="Show a notification: &quot;Fail to verify your information.&quot;, and log out." style="rounded=1;whiteSpace=wrap;html=1;" parent="NAynLkv95dkXEbG3x9yb-1" vertex="1">
          <mxGeometry x="700" y="560" width="250" height="50" as="geometry" />
        </mxCell>
        <mxCell id="NAynLkv95dkXEbG3x9yb-22" value="" style="ellipse;html=1;shape=endState;fillColor=#000000;strokeColor=#ff0000;" parent="NAynLkv95dkXEbG3x9yb-1" vertex="1">
          <mxGeometry x="810" y="990" width="30" height="30" as="geometry" />
        </mxCell>
        <mxCell id="NAynLkv95dkXEbG3x9yb-23" style="edgeStyle=orthogonalEdgeStyle;rounded=0;orthogonalLoop=1;jettySize=auto;html=1;exitX=0.5;exitY=1;exitDx=0;exitDy=0;entryX=1;entryY=0.5;entryDx=0;entryDy=0;" parent="NAynLkv95dkXEbG3x9yb-1" source="NAynLkv95dkXEbG3x9yb-17" target="NAynLkv95dkXEbG3x9yb-11" edge="1">
          <mxGeometry relative="1" as="geometry" />
        </mxCell>
        <mxCell id="NAynLkv95dkXEbG3x9yb-24" style="edgeStyle=orthogonalEdgeStyle;rounded=0;orthogonalLoop=1;jettySize=auto;html=1;exitX=1;exitY=0.5;exitDx=0;exitDy=0;" parent="NAynLkv95dkXEbG3x9yb-1" source="NAynLkv95dkXEbG3x9yb-6" target="NAynLkv95dkXEbG3x9yb-17" edge="1">
          <mxGeometry relative="1" as="geometry" />
        </mxCell>
        <mxCell id="NAynLkv95dkXEbG3x9yb-25" style="edgeStyle=orthogonalEdgeStyle;rounded=0;orthogonalLoop=1;jettySize=auto;html=1;exitX=1;exitY=0.5;exitDx=0;exitDy=0;entryX=0;entryY=0.5;entryDx=0;entryDy=0;" parent="NAynLkv95dkXEbG3x9yb-1" source="NAynLkv95dkXEbG3x9yb-12" target="NAynLkv95dkXEbG3x9yb-21" edge="1">
          <mxGeometry relative="1" as="geometry" />
        </mxCell>
        <mxCell id="NAynLkv95dkXEbG3x9yb-26" style="edgeStyle=orthogonalEdgeStyle;rounded=0;orthogonalLoop=1;jettySize=auto;html=1;exitX=1;exitY=0.5;exitDx=0;exitDy=0;" parent="NAynLkv95dkXEbG3x9yb-1" source="NAynLkv95dkXEbG3x9yb-13" target="NAynLkv95dkXEbG3x9yb-19" edge="1">
          <mxGeometry relative="1" as="geometry" />
        </mxCell>
        <mxCell id="NAynLkv95dkXEbG3x9yb-16" value="System" style="swimlane;html=1;startSize=20;" parent="1" vertex="1">
          <mxGeometry x="590" y="60" width="520" height="1140" as="geometry" />
        </mxCell>
      </root>
    </mxGraphModel>
  </diagram>
</mxfile>
